# xmcd
#
# Track frame offsets: 
#        150
#        39505
#        68779
#        98951
#        128964
#        155091
#        179162
#        214922
#        250428
#
# Disc length: 3622 seconds
#
# Revision: 1
# Processed by: cddbd v1.5.2PL0 Copyright (c) Steve Scherf et al.
# Submitted via: ExactAudioCopy v1.3
#
DISCID=8b0e2409
DTITLE=Lucky Peterson - Tribute to Jimmy Smith
DYEAR=2017
DGENRE=Jazz
TTITLE0=Night Train
TTITLE1=The Sermon
TTITLE2=The Champ
TTITLE3=Jimmy Wants to Groove
TTITLE4=Singin' This Song 4 U
TTITLE5=Jimmy's Jumpin'
TTITLE6=Misty
TTITLE7=Back at the Chicken Shack
TTITLE8=Blues for Wes
EXTD=
EXTT0=
EXTT1=
EXTT2=
EXTT3=
EXTT4=
EXTT5=
EXTT6=
EXTT7=
EXTT8=
PLAYORDER=
